<?xml version="1.0" standalone="no"?>
<!DOCTYPE svg PUBLIC "-//W3C//DTD SVG 20010904//EN"
 "http://www.w3.org/TR/2001/REC-SVG-20010904/DTD/svg10.dtd">
<svg version="1.0" xmlns="http://www.w3.org/2000/svg"
 width="700.000000pt" height="700.000000pt" viewBox="0 0 700.000000 700.000000"
 preserveAspectRatio="xMidYMid meet">
<metadata>
Created by potrace 1.11, written by Peter Selinger 2001-2013
</metadata>
<g transform="translate(0.000000,700.000000) scale(0.100000,-0.100000)"
fill="#000000" stroke="none">
<path d="M3457 6976 c-20 -13 -34 -26 -29 -31 4 -4 1 -5 -7 0 -9 5 -19 2 -28
-10 -7 -11 -13 -16 -13 -12 0 4 -9 3 -20 -3 -11 -6 -17 -16 -14 -22 4 -6 3 -8
-4 -4 -6 3 -30 -5 -54 -18 -149 -84 -197 -113 -192 -118 3 -3 -1 -5 -8 -4 -21
2 -168 -86 -161 -97 3 -6 1 -7 -5 -3 -16 10 -74 -22 -66 -36 4 -7 3 -8 -4 -4
-11 7 -42 -7 -75 -34 -16 -13 -93 -15 -529 -15 -493 -1 -510 -1 -521 -20 -11
-18 -36 -60 -84 -145 -11 -19 -34 -59 -52 -88 -17 -29 -31 -54 -31 -56 0 -2
-25 -45 -55 -95 -30 -51 -55 -94 -55 -96 0 -3 -15 -28 -33 -57 -18 -29 -38
-64 -45 -78 -7 -14 -22 -42 -35 -62 -12 -20 -38 -65 -57 -99 -19 -34 -47 -70
-62 -79 -15 -9 -26 -19 -23 -22 3 -2 -1 -5 -8 -5 -23 0 -127 -65 -120 -75 3
-7 1 -8 -5 -4 -16 10 -54 -12 -46 -26 4 -7 3 -8 -4 -4 -20 12 -177 -78 -166
-95 3 -5 -1 -6 -9 -3 -17 6 -80 -30 -70 -40 4 -4 1 -4 -8 -1 -8 3 -26 -5 -39
-17 -14 -13 -26 -22 -28 -20 -5 5 -102 -51 -102 -60 0 -4 -3 -7 -7 -6 -19 4
-64 -23 -57 -34 4 -6 3 -8 -4 -4 -18 11 -62 -16 -63 -38 0 -12 -2 -40 -3 -64
-2 -24 1 -45 6 -48 5 -3 5 -10 1 -17 -11 -18 -9 -377 2 -377 6 0 4 -4 -3 -9
-17 -11 -17 -21 0 -32 7 -5 8 -9 2 -9 -14 0 -14 -30 0 -30 6 0 5 -4 -2 -9 -17
-10 -14 -22 7 -39 12 -9 12 -12 2 -10 -11 2 -14 -22 -15 -127 -2 -149 6 -125
-129 -353 -20 -35 -37 -65 -37 -67 0 -3 -16 -29 -35 -59 -19 -30 -35 -57 -35
-60 0 -2 -27 -50 -60 -106 -33 -56 -60 -104 -60 -107 0 -3 -8 -17 -18 -31 -11
-15 -33 -53 -50 -85 -47 -86 -44 -122 19 -227 28 -47 62 -105 75 -130 13 -25
32 -58 42 -75 63 -107 103 -177 131 -228 18 -32 45 -79 61 -105 16 -26 45 -78
64 -117 l34 -70 -1 -158 c-1 -100 2 -157 8 -157 5 0 4 -4 -3 -9 -8 -4 -14 -12
-14 -16 0 -4 6 -12 14 -16 7 -5 8 -9 2 -9 -6 0 -11 -7 -11 -15 0 -8 5 -15 11
-15 7 0 7 -3 1 -8 -14 -10 -17 -32 -4 -32 7 0 8 -5 3 -13 -5 -6 -9 -102 -8
-212 2 -256 1 -242 22 -249 9 -3 35 -17 57 -30 22 -14 46 -23 53 -21 7 3 11 1
8 -3 -7 -12 52 -44 66 -36 6 4 8 3 4 -4 -5 -9 102 -76 118 -73 3 1 15 -8 26
-19 11 -11 27 -20 35 -20 8 0 15 -3 15 -8 0 -4 21 -18 48 -32 26 -13 68 -37
94 -53 26 -16 52 -26 58 -22 6 4 9 1 8 -5 -2 -6 21 -24 50 -39 94 -51 131 -82
163 -140 18 -31 43 -76 57 -101 14 -25 45 -78 69 -118 24 -41 43 -75 43 -78 0
-2 15 -27 33 -56 18 -29 38 -64 45 -78 7 -14 20 -38 30 -55 10 -16 30 -51 45
-77 14 -25 37 -64 51 -87 14 -22 26 -43 26 -47 0 -17 57 -93 70 -95 8 0 233
-2 500 -3 394 -1 492 -4 523 -16 20 -8 37 -18 37 -22 0 -4 4 -8 9 -8 5 0 55
-27 110 -60 56 -33 104 -60 107 -60 3 0 25 -14 50 -31 24 -16 49 -27 54 -24 6
3 10 2 10 -4 0 -9 124 -83 136 -81 4 1 10 -2 13 -7 9 -14 131 -84 131 -75 0 4
4 2 8 -3 4 -6 20 -19 36 -29 28 -18 29 -18 57 3 15 12 30 21 33 21 7 0 188
107 204 120 6 6 12 8 12 5 0 -3 19 7 42 21 22 14 60 36 82 49 23 12 67 37 99
55 31 17 55 36 52 41 -4 5 1 6 9 3 9 -3 16 -1 16 5 0 6 3 10 8 10 22 -4 34 3
29 15 -4 10 -1 13 8 10 8 -4 43 10 77 29 l63 34 493 -1 c272 -1 497 1 501 4 8
7 61 88 61 95 0 3 12 24 26 47 14 22 54 91 89 152 34 61 95 167 135 236 40 69
84 145 98 170 81 147 99 168 167 206 11 5 43 23 70 39 28 15 61 35 75 42 14 8
48 28 75 44 28 16 59 34 70 39 11 6 43 24 70 40 28 17 65 37 83 46 17 9 32 20
32 25 0 5 7 9 15 9 9 0 51 22 95 49 43 27 88 52 99 56 11 3 20 9 20 13 -1 4 0
9 1 12 6 15 4 313 -3 317 -4 2 -2 13 3 23 13 24 10 41 -10 58 -13 11 -13 12 0
10 21 -4 21 92 0 110 -8 8 -10 11 -3 8 16 -9 27 12 14 28 -6 7 -8 16 -5 19 10
10 11 118 2 123 -5 3 -5 11 -1 17 12 18 10 31 -7 45 -12 10 -13 12 0 10 11 -2
14 12 15 67 1 77 7 91 100 245 30 50 55 93 55 97 0 3 14 29 32 57 30 49 41 68
89 154 12 20 47 82 79 137 32 55 67 117 79 138 11 21 21 55 21 77 0 46 1 44
-197 385 -39 66 -84 145 -101 176 -17 31 -60 105 -95 165 l-63 109 0 148 c1
82 -2 151 -7 154 -4 2 -2 13 3 23 13 24 10 41 -10 58 -13 10 -13 12 0 10 9 -2
15 6 16 20 1 12 -3 22 -9 22 -5 0 -5 6 2 14 14 17 11 37 -9 54 -8 8 -10 11 -3
8 16 -9 27 12 14 28 -6 7 -8 16 -4 19 9 10 10 218 0 224 -4 2 -2 13 3 23 13
24 10 41 -10 58 -13 10 -13 12 0 10 8 -2 15 6 16 18 1 17 -20 34 -109 85 -61
35 -136 79 -166 96 -62 36 -91 50 -105 51 -5 0 -13 7 -18 16 -5 9 -13 16 -17
16 -5 0 -39 18 -75 40 -36 22 -68 40 -71 40 -3 0 -23 12 -45 26 -22 15 -44 23
-51 18 -7 -4 -10 -3 -6 2 3 6 -24 28 -61 50 l-66 40 -129 224 c-71 124 -138
240 -148 258 -50 86 -63 109 -77 137 -8 17 -20 36 -26 44 -15 19 -72 119 -91
159 -8 17 -19 33 -23 33 -4 1 -232 2 -507 3 l-500 2 -50 28 c-27 16 -81 47
-120 69 -38 22 -75 40 -82 40 -7 0 -10 3 -8 7 2 3 -17 17 -43 31 -71 39 -141
78 -205 115 -32 19 -62 34 -68 34 -5 0 -9 5 -9 10 0 6 -4 10 -10 10 -5 0 -38
17 -72 38 -86 52 -89 53 -131 28z m-821 -471 c-14 -11 -42 -29 -63 -40 -21
-11 -41 -24 -44 -28 -3 -5 -9 -8 -13 -8 -12 2 -116 -61 -116 -70 0 -5 -3 -8
-7 -7 -16 4 -53 -14 -47 -23 3 -5 2 -8 -3 -7 -15 4 -53 -13 -53 -24 0 -6 -3
-8 -6 -5 -4 4 -19 -2 -34 -13 -16 -11 -31 -20 -34 -20 -3 0 -35 -18 -71 -40
-36 -22 -70 -40 -75 -40 -6 0 -10 -4 -10 -8 0 -5 -17 -17 -37 -26 -43 -19 -75
-37 -151 -84 -29 -17 -54 -32 -56 -32 -2 0 -45 -25 -97 -55 -52 -30 -124 -71
-161 -92 -37 -20 -65 -40 -62 -45 3 -4 -1 -5 -9 -2 -8 3 -20 -2 -27 -11 -7 -8
-17 -15 -23 -15 -5 0 -32 -13 -59 -30 -26 -16 -51 -30 -54 -30 -3 0 9 26 27
58 17 31 41 73 52 92 10 19 40 71 66 115 26 44 50 87 54 95 4 8 15 29 26 45
10 17 28 47 40 68 11 20 31 54 43 75 12 20 28 50 37 65 9 16 21 36 26 45 6 9
23 40 38 67 l28 50 450 0 450 0 -25 -20z m2607 16 c4 0 7 -5 7 -9 0 -8 113
-209 162 -288 13 -21 30 -54 37 -71 8 -18 17 -33 22 -33 5 0 9 -5 9 -10 0 -6
20 -43 44 -83 24 -39 54 -92 68 -117 61 -109 70 -126 79 -134 16 -18 9 -27
-11 -16 -11 6 -20 7 -20 3 0 -4 -4 -3 -8 3 -8 12 -126 84 -138 84 -4 0 -15 6
-23 14 -9 7 -43 28 -76 46 -33 18 -75 41 -92 52 -18 11 -37 17 -43 13 -6 -4
-9 -1 -8 5 4 15 -80 62 -94 54 -6 -4 -8 -2 -4 4 3 6 -7 16 -24 24 -16 7 -30
16 -30 20 0 5 -9 8 -20 8 -11 0 -20 3 -20 8 0 4 -10 12 -23 18 -25 13 -264
149 -287 164 -33 21 -129 72 -134 71 -3 -1 -15 8 -26 19 -11 11 -27 20 -35 20
-8 0 -15 3 -15 8 0 4 -15 13 -32 21 -18 8 -35 17 -38 21 -12 17 -138 79 -145
72 -5 -4 -6 -2 -2 3 3 7 161 10 459 9 249 -1 456 -2 461 -3z m-1322 -48 c13
-16 12 -17 -3 -4 -10 7 -18 15 -18 17 0 8 8 3 21 -13z m320 0 c13 -16 12 -17
-3 -4 -10 7 -18 15 -18 17 0 8 8 3 21 -13z m124 8 c3 -5 2 -12 -3 -15 -5 -3
-9 1 -9 9 0 17 3 19 12 6z m-1274 -38 c13 -16 12 -17 -3 -4 -10 7 -18 15 -18
17 0 8 8 3 21 -13z m480 0 c13 -16 12 -17 -3 -4 -10 7 -18 15 -18 17 0 8 8 3
21 -13z m-964 -8 c0 -8 -4 -12 -9 -9 -5 3 -6 10 -3 15 9 13 12 11 12 -6z m278
-83 c-3 -3 -11 0 -18 7 -9 10 -8 11 6 5 10 -3 15 -9 12 -12z m10 -111 c-9 -8
-36 -10 -30 -2 2 4 11 8 20 8 8 0 13 -3 10 -6z m1995 -157 c0 -8 -19 -13 -24
-6 -3 5 1 9 9 9 8 0 15 -2 15 -3z m-2635 -83 c-9 -8 -36 -10 -30 -2 2 4 11 8
20 8 8 0 13 -3 10 -6z m476 -78 c13 -16 12 -17 -3 -4 -17 13 -22 21 -14 21 2
0 10 -8 17 -17z m2674 -42 c3 -5 2 -12 -3 -15 -5 -3 -9 1 -9 9 0 17 3 19 12 6z
m-3154 -118 c13 -16 12 -17 -3 -4 -10 7 -18 15 -18 17 0 8 8 3 21 -13z m3359
-87 c-7 -7 -13 -7 -20 0 -6 6 -3 10 10 10 13 0 16 -4 10 -10z m313 -111 c-3
-9 -8 -14 -10 -11 -3 3 -2 9 2 15 9 16 15 13 8 -4z m-1002 -12 c13 -16 12 -17
-3 -4 -10 7 -18 15 -18 17 0 8 8 3 21 -13z m-1560 -40 c13 -16 12 -17 -3 -4
-10 7 -18 15 -18 17 0 8 8 3 21 -13z m2680 0 c13 -16 12 -17 -3 -4 -10 7 -18
15 -18 17 0 8 8 3 21 -13z m-4635 -108 c-1 -8 -5 -17 -8 -21 -5 -4 -4 16 1 34
3 9 9 -1 7 -13z m3198 -15 c-6 -6 -10 -3 -10 10 0 13 4 16 10 10 7 -7 7 -13 0
-20z m-3073 -107 c13 -16 12 -17 -3 -4 -10 7 -18 15 -18 17 0 8 8 3 21 -13z
m4529 3 c0 -2 -8 -10 -17 -17 -16 -13 -17 -12 -4 4 13 16 21 21 21 13z m-2730
-30 c0 -2 -8 -10 -17 -17 -16 -13 -17 -12 -4 4 13 16 21 21 21 13z m1600 0 c0
-2 -8 -10 -17 -17 -16 -13 -17 -12 -4 4 13 16 21 21 21 13z m-3790 -130 c0 -2
-8 -10 -17 -17 -16 -13 -17 -12 -4 4 13 16 21 21 21 13z m3311 -43 c13 -16 12
-17 -3 -4 -10 7 -18 15 -18 17 0 8 8 3 21 -13z m1515 -3 c0 -12 -4 -16 -9 -11
-5 5 -6 14 -3 20 10 15 12 14 12 -9z m-5275 -157 c13 -16 12 -17 -3 -4 -10 7
-18 15 -18 17 0 8 8 3 21 -13z m120 -200 c13 -16 12 -17 -3 -4 -10 7 -18 15
-18 17 0 8 8 3 21 -13z m2759 -39 c0 -8 -19 -13 -24 -6 -3 5 1 9 9 9 8 0 15
-2 15 -3z m201 -41 c13 -16 12 -17 -3 -4 -10 7 -18 15 -18 17 0 8 8 3 21 -13z
m1363 -1 c2 -4 -4 -8 -14 -8 -10 0 -16 4 -14 8 3 4 9 8 14 8 5 0 11 -4 14 -8z
m-1170 -48 c3 -8 2 -12 -4 -9 -6 3 -10 10 -10 16 0 14 7 11 14 -7z m1917 -1
c13 -16 12 -17 -3 -4 -10 7 -18 15 -18 17 0 8 8 3 21 -13z m-261 -27 c0 -2 -8
-10 -17 -17 -16 -13 -17 -12 -4 4 13 16 21 21 21 13z m-3974 -126 c0 -12 -4
-16 -9 -11 -5 5 -6 14 -3 20 10 15 12 14 12 -9z m4645 -157 c13 -16 12 -17 -3
-4 -10 7 -18 15 -18 17 0 8 8 3 21 -13z m269 -53 c0 -5 14 -33 31 -62 49 -82
71 -120 91 -158 10 -19 30 -53 44 -75 14 -22 30 -52 37 -67 6 -16 15 -28 19
-28 4 0 8 -4 8 -9 0 -5 22 -47 49 -93 26 -46 69 -119 95 -163 25 -44 42 -81
36 -83 -5 -2 -10 -8 -10 -12 0 -5 -14 -33 -31 -62 -46 -77 -69 -118 -94 -163
-41 -74 -67 -120 -75 -130 -4 -5 -19 -31 -34 -57 -72 -131 -107 -191 -134
-233 -6 -11 -16 -30 -21 -42 -11 -24 -34 -42 -25 -20 3 8 0 18 -5 22 -6 3 -8
11 -5 17 10 16 11 219 1 225 -4 2 -2 13 3 23 13 24 10 41 -10 58 -13 10 -13
12 0 10 9 -2 15 6 16 20 1 12 -3 22 -9 22 -5 0 -5 6 2 14 14 17 11 37 -9 54
-8 8 -10 11 -3 8 16 -9 27 12 14 28 -6 7 -8 16 -4 19 9 10 10 218 0 224 -4 2
-2 13 3 23 13 24 10 41 -10 58 -13 10 -13 12 0 10 9 -2 15 6 16 20 1 12 -3 22
-9 22 -5 0 -5 6 2 14 14 17 11 37 -9 54 -8 8 -10 11 -3 8 16 -9 27 12 14 28
-6 7 -8 16 -4 19 9 10 10 218 0 224 -4 2 -2 13 3 23 13 24 10 41 -10 58 -13
10 -13 12 0 10 10 -2 14 7 15 30 0 17 -4 32 -9 32 -5 0 -4 6 1 13 5 6 8 29 8
49 -1 20 2 35 7 32 4 -3 8 -9 8 -14z m-6104 -722 c-1 -481 2 -736 9 -740 6 -5
2 -8 -7 -8 -10 0 -18 4 -18 9 0 8 -35 70 -163 291 -11 19 -29 51 -39 70 -10
19 -27 49 -37 65 -10 17 -27 46 -38 65 -11 19 -46 79 -77 132 -31 53 -56 102
-56 108 0 6 46 91 101 188 56 97 110 191 120 209 10 17 29 50 43 72 15 22 26
42 26 45 0 2 25 46 55 97 30 51 57 101 61 111 3 10 9 18 13 18 4 0 7 -330 7
-732z m3585 685 c13 -16 12 -17 -3 -4 -17 13 -22 21 -14 21 2 0 10 -8 17 -17z
m1329 -17 c0 -2 -8 -10 -17 -17 -16 -13 -17 -12 -4 4 13 16 21 21 21 13z m241
-53 c13 -16 12 -17 -3 -4 -10 7 -18 15 -18 17 0 8 8 3 21 -13z m833 -13 c-6
-6 -10 -3 -10 10 0 13 4 16 10 10 7 -7 7 -13 0 -20z m-4189 -29 c-9 -8 -36
-10 -30 -2 2 4 11 8 20 8 8 0 13 -3 10 -6z m1761 -83 c3 -4 -1 -5 -10 -4 -8 1
-18 5 -22 8 -3 4 1 5 10 4 8 -1 18 -5 22 -8z m-3156 -112 c0 -2 -8 -10 -17
-17 -16 -13 -17 -12 -4 4 13 16 21 21 21 13z m1391 -43 c13 -16 12 -17 -3 -4
-10 7 -18 15 -18 17 0 8 8 3 21 -13z m2769 -117 c0 -2 -8 -10 -17 -17 -16 -13
-17 -12 -4 4 13 16 21 21 21 13z m-1495 -134 c-3 -3 -11 0 -18 7 -9 10 -8 11
6 5 10 -3 15 -9 12 -12z m1716 -39 c13 -16 12 -17 -3 -4 -10 7 -18 15 -18 17
0 8 8 3 21 -13z m-3835 -79 c1 -9 0 -13 -4 -10 -3 4 -7 14 -8 22 -1 9 0 13 4
10 3 -4 7 -14 8 -22z m4240 0 c1 -9 0 -13 -4 -10 -3 4 -7 14 -8 22 -1 9 0 13
4 10 3 -4 7 -14 8 -22z m-3916 -138 c0 -2 -8 -10 -17 -17 -16 -13 -17 -12 -4
4 13 16 21 21 21 13z m2970 -50 c0 -2 -8 -10 -17 -17 -16 -13 -17 -12 -4 4 13
16 21 21 21 13z m910 -230 c0 -2 -8 -10 -17 -17 -16 -13 -17 -12 -4 4 13 16
21 21 21 13z m-4315 -15 c-9 -8 -36 -10 -30 -2 2 4 11 8 20 8 8 0 13 -3 10 -6z
m2881 -3 c3 -4 -1 -5 -10 -4 -8 1 -18 5 -22 8 -3 4 1 5 10 4 8 -1 18 -5 22 -8z
m1155 -35 c13 -16 12 -17 -3 -4 -10 7 -18 15 -18 17 0 8 8 3 21 -13z m-1636
-122 c-9 -8 -36 -10 -30 -2 2 4 11 8 20 8 8 0 13 -3 10 -6z m-1889 -47 c1 -9
0 -13 -4 -10 -3 4 -7 14 -8 22 -1 9 0 13 4 10 3 -4 7 -14 8 -22z m3840 11 c-1
-8 -5 -17 -8 -21 -5 -4 -4 16 1 34 3 9 9 -1 7 -13z m-2116 -49 c-7 -7 -13 -7
-20 0 -6 6 -3 10 10 10 13 0 16 -4 10 -10z m-2249 -83 c13 -16 12 -17 -3 -4
-17 13 -22 21 -14 21 2 0 10 -8 17 -17z m219 -27 c0 -2 -8 -10 -17 -17 -16
-13 -17 -12 -4 4 13 16 21 21 21 13z m261 -53 c13 -16 12 -17 -3 -4 -10 7 -18
15 -18 17 0 8 8 3 21 -13z m649 -387 c0 -2 -7 -7 -16 -10 -8 -3 -12 -2 -9 4 6
10 25 14 25 6z m3751 -19 c-10 -9 -11 -8 -5 6 3 10 9 15 12 12 3 -3 0 -11 -7
-18z m-2360 -34 c13 -16 12 -17 -3 -4 -17 13 -22 21 -14 21 2 0 10 -8 17 -17z
m1920 -6 c-10 -9 -11 -8 -5 6 3 10 9 15 12 12 3 -3 0 -11 -7 -18z m-4985 -109
c3 -4 -1 -5 -10 -4 -8 1 -18 5 -22 8 -3 4 1 5 10 4 8 -1 18 -5 22 -8z m3644
-32 c0 -2 -8 -10 -17 -17 -16 -13 -17 -12 -4 4 13 16 21 21 21 13z m261 -53
c13 -16 12 -17 -3 -4 -17 13 -22 21 -14 21 2 0 10 -8 17 -17z m-831 -17 c0 -2
-8 -10 -17 -17 -16 -13 -17 -12 -4 4 13 16 21 21 21 13z m-1720 -200 c0 -2 -8
-10 -17 -17 -16 -13 -17 -12 -4 4 13 16 21 21 21 13z m-279 -53 c13 -16 12
-17 -3 -4 -10 7 -18 15 -18 17 0 8 8 3 21 -13z m-200 -40 c13 -16 12 -17 -3
-4 -10 7 -18 15 -18 17 0 8 8 3 21 -13z m4760 0 c13 -16 12 -17 -3 -4 -10 7
-18 15 -18 17 0 8 8 3 21 -13z m-5156 -2 c-9 -8 -36 -10 -30 -2 2 4 11 8 20 8
8 0 13 -3 10 -6z m3826 -8 c13 -16 12 -17 -3 -4 -17 13 -22 21 -14 21 2 0 10
-8 17 -17z m-1075 -108 c-1 -8 -5 -17 -8 -21 -5 -4 -4 16 1 34 3 9 9 -1 7 -13z
m2160 -11 c1 -9 0 -13 -4 -10 -3 4 -7 14 -8 22 -1 9 0 13 4 10 3 -4 7 -14 8
-22z m-2645 -81 c13 -16 12 -17 -3 -4 -10 7 -18 15 -18 17 0 8 8 3 21 -13z
m-421 -107 c0 -2 -8 -10 -17 -17 -16 -13 -17 -12 -4 4 13 16 21 21 21 13z
m426 -126 c0 -12 -4 -16 -9 -11 -5 5 -6 14 -3 20 10 15 12 14 12 -9z m318 -10
c-6 -6 -10 -3 -10 10 0 13 4 16 10 10 7 -7 7 -13 0 -20z m-2434 -5 c22 -14 40
-22 40 -18 0 5 4 3 8 -3 7 -11 26 -23 132 -82 25 -13 71 -40 103 -58 32 -19
62 -34 68 -34 5 0 9 -5 9 -11 0 -6 9 -9 20 -6 10 3 18 1 17 -5 -2 -11 136 -91
149 -86 3 2 10 -5 15 -14 6 -10 17 -18 24 -18 8 0 15 -4 15 -8 0 -4 12 -13 28
-19 15 -7 47 -24 72 -38 25 -15 60 -35 78 -46 19 -11 38 -16 44 -13 6 4 8 3 5
-3 -7 -12 49 -46 63 -38 6 4 9 1 8 -5 -2 -6 31 -29 72 -52 41 -22 86 -48 100
-57 14 -9 38 -23 55 -31 16 -8 52 -30 80 -48 27 -18 56 -30 63 -27 7 3 10 0 7
-5 -3 -6 2 -10 11 -10 10 0 14 -3 10 -7 -3 -4 -208 -7 -455 -7 l-449 -1 -53
94 c-63 110 -82 143 -157 271 -30 52 -62 109 -70 125 -8 17 -23 41 -32 55 -9
14 -28 45 -42 70 -61 110 -70 126 -79 135 -10 10 -12 25 -4 25 3 0 23 -11 45
-25z m1890 21 c0 -2 -8 -10 -17 -17 -16 -13 -17 -12 -4 4 13 16 21 21 21 13z
m2407 -24 c-10 -10 -17 -21 -17 -24 0 -4 -19 -39 -43 -80 -24 -40 -59 -100
-77 -133 -34 -61 -57 -103 -82 -146 -7 -13 -15 -26 -18 -29 -3 -3 -11 -16 -19
-30 -62 -108 -88 -153 -118 -210 -20 -36 -42 -72 -49 -80 -11 -13 -71 -15
-441 -13 -516 1 -467 0 -451 17 7 8 15 13 16 11 2 -2 27 10 55 27 29 17 68 40
87 50 121 68 140 81 134 90 -4 6 -2 8 4 4 12 -7 62 13 62 26 0 5 3 7 8 4 4 -2
26 9 50 25 23 16 45 29 47 29 13 0 174 98 170 104 -3 3 -2 4 1 1 4 -2 32 10
63 27 95 53 111 64 103 73 -4 5 -2 5 5 2 12 -8 73 23 73 36 0 5 4 6 9 3 4 -3
23 6 41 19 19 14 40 25 47 25 7 0 13 4 13 8 0 4 12 13 28 20 71 32 102 53 96
64 -4 7 -3 8 5 4 6 -4 33 6 59 21 26 16 55 32 65 36 9 3 17 11 17 17 0 6 3 9
8 6 4 -2 18 2 32 9 31 17 38 11 17 -13z m-1607 -56 c0 -2 -8 -10 -17 -17 -16
-13 -17 -12 -4 4 13 16 21 21 21 13z m1307 -51 c0 -8 -4 -12 -9 -9 -5 3 -6 10
-3 15 9 13 12 11 12 -6z m-553 -153 c2 -4 -4 -8 -14 -8 -10 0 -16 4 -14 8 3 4
9 8 14 8 5 0 11 -4 14 -8z m-2570 -160 c3 -5 -1 -9 -9 -9 -8 0 -12 4 -9 9 3 4
7 8 9 8 2 0 6 -4 9 -8z m1277 -169 c13 -16 12 -17 -3 -4 -17 13 -22 21 -14 21
2 0 10 -8 17 -17z"/>
</g>
</svg>
