<svg xmlns="http://www.w3.org/2000/svg" width="200" height="200" version="1.1">
    <path stroke="#fff" fill="none" d="M150 13 L50 13 L0 100 L50 187 L150 187 L200 100 Z"></path>
    <path fill-opacity="0.6" fill="#000" d="M100 0 L13 50 L13 150 L100 200 L187 150 L187 50 Z"></path>
    <!-- <path fill="#fff" d="M93.2 134.6L75 134.6L75 65L104.1 65A33.201 33.201 0 0 1 110.10499999999999 65.517A24.009 24.009 0 0 1 116.7 67.7Q122.8 70.8 126.4 76.55Q130 82.3 130 89.2Q130 96.1 126.45 101.9Q122.9 107.7 116.8 110.8A22.841 22.841 0 0 1 110.826 112.86699999999999Q107.733 113.5 104.1 113.5L93.2 113.5L93.2 134.6z" vector-effect="non-scaling-stroke"/> -->
    <!-- <path fill="#fff" d="M100.1 107.2L92.4 107.2L92.4 125.2A28.723 28.723 0 0 0 92.456 127.071Q92.613 129.452 93.2 130.7A4.138 4.138 0 0 0 95.461 132.809A5.748 5.748 0 0 0 96 133Q98 133.6 102.5 133.8L102.5 135.8A132.673 132.673 0 0 0 99.631 135.66899999999998Q96.396 135.553 92.017 135.51600000000002A510.523 510.523 0 0 0 87.8 135.5A403.928 403.928 0 0 0 83.775 135.519Q78.217 135.574 75.075 135.79500000000002A58.547 58.547 0 0 0 75 135.8L75 133.8Q78.6 133.6 80.25 133A3.557 3.557 0 0 0 82.378 131.00900000000001A4.55 4.55 0 0 0 82.5 130.7Q83.1 129 83.1 125.2L83.1 75.6Q83.1 72.633 82.734 70.946A7.035 7.035 0 0 0 82.5 70.1A3.881 3.881 0 0 0 81.741 68.785A3.621 3.621 0 0 0 80.25 67.8Q78.89 67.305 76.203 67.083A44.347 44.347 0 0 0 75 67L75 65A85.335 85.335 0 0 0 77.337 65.131Q79.993 65.247 83.659 65.284A359.009 359.009 0 0 0 87.2 65.3L98 65.2A68.495 68.495 0 0 1 99.89099999999999 65.128Q100.883 65.104 101.983 65.1A112.769 112.769 0 0 1 102.3 65.1Q110.229 65.1 115.63300000000001 67.557A18.947 18.947 0 0 1 120.2 70.45A17.567 17.567 0 0 1 126.326 82.875A24.49 24.49 0 0 1 126.4 84.8Q126.4 90.3 123.95 95.35A17.996 17.996 0 0 1 119.488 101.081A24.81 24.81 0 0 1 115.65 103.8Q111.051 106.473 104.07300000000001 107.044A48.704 48.704 0 0 1 100.1 107.2zM92.4 75.6L92.4 105.2L99.1 105.2Q104.711 105.2 108.339 103.479A10.935 10.935 0 0 0 112.65 99.95A18.67 18.67 0 0 0 115.40299999999999 94.031Q116.4 90.438 116.4 85.9Q116.4 76.2 112.55 71.6A11.577 11.577 0 0 0 107.63499999999999 68.223Q105.708 67.497 103.307 67.202A28.8 28.8 0 0 0 99.8 67A22.079 22.079 0 0 0 98.179 67.055Q96.264 67.197 95.15 67.7A3.83 3.83 0 0 0 93.193 69.703A5.31 5.31 0 0 0 93 70.2Q92.494 71.718 92.41499999999999 74.517A38.321 38.321 0 0 0 92.4 75.6z" vector-effect="non-scaling-stroke"/> -->
    <!-- <path fill="#fff" d="M68 135.001L68 130.401L71.2 130.401A13.102 13.102 0 0 0 72.652 130.326Q74.142 130.159 75.044 129.62A3.332 3.332 0 0 0 75.3 129.451A3.05 3.05 0 0 0 76.482 127.60900000000001A4.899 4.899 0 0 0 76.6 126.501L76.6 73.601A4.14 4.14 0 0 0 76.208 71.735Q75.346 70.004 72.59 69.67699999999999A11.81 11.81 0 0 0 71.2 69.601L68 69.601L68 65.001L108.5 65.001A48.256 48.256 0 0 1 114.969 65.403Q122.372 66.408 126.38300000000001 69.923A13.473 13.473 0 0 1 127.2 70.701A18.61 18.61 0 0 1 131.685 78.731Q132.7 82.332 132.7 86.801A31.667 31.667 0 0 1 132.108 93.12Q131.317 97.00200000000001 129.469 99.981A17.386 17.386 0 0 1 127.2 102.90100000000001A15.825 15.825 0 0 1 121.595 106.538Q116.441 108.601 108.5 108.601L96.3 108.601L96.3 126.501A4.858 4.858 0 0 0 96.42699999999999 127.648A3.041 3.041 0 0 0 97.6 129.451A4.036 4.036 0 0 0 98.699 130.001Q99.765 130.361 101.342 130.397A15.659 15.659 0 0 0 101.7 130.401L104.9 130.401L104.9 135.001L68 135.001zM96.3 102.101L103.6 102.101A10.213 10.213 0 0 0 106.596 101.686A7.567 7.567 0 0 0 110.95 98.251A13.265 13.265 0 0 0 112.312 95.08Q113.226 91.979 113.294 87.52799999999999A47.419 47.419 0 0 0 113.3 86.801A39.602 39.602 0 0 0 113.114 82.826Q112.63900000000001 78.132 110.95 75.401A7.651 7.651 0 0 0 105.382 71.734A11.399 11.399 0 0 0 103.6 71.601L96.3 71.601L96.3 102.101z" vector-effect="non-scaling-stroke"/> -->
    <path fill="#fff" d="M61 143.501L61 137.751L65 137.751A16.377 16.377 0 0 0 66.815 137.65800000000002Q68.67699999999999 137.449 69.805 136.775A4.165 4.165 0 0 0 70.125 136.563A3.812 3.812 0 0 0 71.603 134.261A6.124 6.124 0 0 0 71.75 132.876L71.75 66.751A5.175 5.175 0 0 0 71.26 64.419Q70.182 62.256 66.737 61.846000000000004A14.763 14.763 0 0 0 65 61.751L61 61.751L61 56.001L111.625 56.001Q128.125 56.001 135 63.126A23.263 23.263 0 0 1 140.606 73.164Q141.637 76.821 141.82999999999998 81.194A46.562 46.562 0 0 1 141.875 83.251Q141.875 93.214 137.837 99.727A21.733 21.733 0 0 1 135 103.376Q128.386 110.231 112.862 110.491A73.92 73.92 0 0 1 111.625 110.501L96.375 110.501L96.375 132.876A6.073 6.073 0 0 0 96.53399999999999 134.31A3.801 3.801 0 0 0 98 136.563Q99.519 137.674 102.67699999999999 137.74599999999998A19.575 19.575 0 0 0 103.125 137.751L107.125 137.751L107.125 143.501L61 143.501zM96.375 102.376L105.5 102.376A12.766 12.766 0 0 0 109.245 101.858A9.459 9.459 0 0 0 114.687 97.563Q117.625 92.751 117.625 83.251A49.502 49.502 0 0 0 117.393 78.283Q116.863 73.051 115.12700000000001 69.77A13.174 13.174 0 0 0 114.688 69.001A9.564 9.564 0 0 0 107.727 64.418A14.249 14.249 0 0 0 105.5 64.251L96.375 64.251L96.375 102.376z" vector-effect="non-scaling-stroke"/>
</svg>